<svg xmlns="http://www.w3.org/2000/svg" viewBox="0 0 24 24" fill-rule="evenodd" clip-rule="evenodd" fill="none">
  <path 
    d="M12,0c6.623,0 12,5.377 12,12c0,6.623 -5.377,12 -12,12c-6.623,0 -12,-5.377 -12,-12c0,-6.623 5.377,-12 12,-12Zm0,1.201c5.96,0 10.799,4.839 10.799,10.799c0,5.96 -4.839,10.799 -10.799,10.799c-5.96,0 -10.799,-4.839 -10.799,-10.799c0,-5.96 4.839,-10.799 10.799,-10.799Zm0,1.082c5.363,0 9.717,4.354 9.717,9.717c0,5.363 -4.354,9.717 -9.717,9.717c-5.363,0 -9.717,-4.354 -9.717,-9.717c0,-5.363 4.354,-9.717 9.717,-9.717Zm3.77,14.269c0.224,0 0.405,-0.187 0.405,-0.417c0,-0.231 -0.181,-0.418 -0.405,-0.418l-7.541,0c-0.223,0 -0.404,0.187 -0.404,0.418c0,0.23 0.181,0.417 0.404,0.417l7.541,0Zm0.238,-1.285l2.672,-5.884l-4.595,2.711l-1.888,-4.193c0.415,-0.083 0.727,-0.455 0.727,-0.901c0,-0.507 -0.405,-0.918 -0.904,-0.918c-0.499,0 -0.904,0.411 -0.904,0.918c0,0.434 0.297,0.796 0.695,0.892l-1.855,4.202l-4.636,-2.71l2.631,5.883l8.057,0l0,0Zm-5.7,-5.108l-1.326,-1.192l-0.428,1.8l1.181,0.691l0.573,-1.299Zm3.384,0l1.326,-1.192l0.428,1.8l-1.181,0.691l-0.573,-1.299Z" 
    fill="#a855f7"
  ></path>
</svg>
