<svg xmlns="http://www.w3.org/2000/svg" viewBox="0 0 24 24" fill-rule="evenodd" clip-rule="evenodd" fill="none">
  <path 
    d="M12,0c6.623,0 12,5.377 12,12c0,6.623 -5.377,12 -12,12c-6.623,0 -12,-5.377 -12,-12c0,-6.623 5.377,-12 12,-12Zm0,1.201c5.96,0 10.799,4.839 10.799,10.799c0,5.96 -4.839,10.799 -10.799,10.799c-5.96,0 -10.799,-4.839 -10.799,-10.799c0,-5.96 4.839,-10.799 10.799,-10.799Zm0,1.082c5.363,0 9.717,4.354 9.717,9.717c0,5.363 -4.354,9.717 -9.717,9.717c-5.363,0 -9.717,-4.354 -9.717,-9.717c0,-5.363 4.354,-9.717 9.717,-9.717Zm0.637,16.853c0.244,0 0.442,-0.195 0.442,-0.436c0,-0.242 -0.198,-0.438 -0.442,-0.438l-1.258,0c-0.245,0 -0.442,0.196 -0.442,0.438c0,0.241 0.197,0.436 0.442,0.436l1.258,0Zm0.427,-1.321l0,-1.695l-0.221,-0.22l0,-2.207l0.22,-0.032c0,0 0.009,-0.785 0.016,-0.784l0,-3.948l-0.018,-0.538l-2.117,0l-0.007,0.174l0,4.309c0.002,-0.001 0.007,0.787 0.007,0.787l0.22,0.032l0,2.207l-0.22,0.226l0.001,1.689l2.119,0Zm-7.349,-6.616c-0.067,-2.428 1.343,-4.131 2.158,-4.906c-0.044,-0.203 -0.1,-0.512 -0.1,-0.512c0,0 -2.763,2.304 -2.608,5.413c0.165,3.258 2.506,5.041 2.506,5.041c0,0 0.025,-0.33 0.084,-0.515c-0.738,-0.693 -1.975,-2.207 -2.04,-4.521Zm12.57,0c0.067,-2.428 -1.343,-4.131 -2.158,-4.906c0.044,-0.203 0.1,-0.512 0.1,-0.512c0,0 2.763,2.304 2.608,5.413c-0.165,3.258 -2.506,5.041 -2.506,5.041c0,0 -0.025,-0.33 -0.084,-0.515c0.738,-0.693 1.975,-2.207 2.04,-4.521Zm-3.229,-2.87c0.436,-0.366 0.706,-1.091 0.857,-1.642c0.782,0.795 1.976,2.364 1.917,4.503c-0.057,2.061 -1.131,3.464 -1.833,4.165c-0.135,-0.347 -0.338,-0.772 -0.622,-1.138c-0.38,-0.488 -1.002,-0.942 -1.86,-1.225l0,-4.059c0.439,-0.055 1.089,-0.225 1.541,-0.604Zm-6.112,0c-0.436,-0.366 -0.706,-1.091 -0.857,-1.642c-0.782,0.795 -1.976,2.364 -1.917,4.503c0.057,2.061 1.131,3.464 1.833,4.165c0.135,-0.347 0.338,-0.772 0.622,-1.138c0.38,-0.488 1.002,-0.942 1.86,-1.225l0,-4.059c-0.439,-0.055 -1.089,-0.225 -1.541,-0.604Zm3.718,-0.385l-0.633,-2.179l-0.645,2.179l1.278,0Z" 
    fill="#f97316"
  ></path>
</svg>
