<svg xmlns="http://www.w3.org/2000/svg" viewBox="0 0 24 24" fill-rule="evenodd" clip-rule="evenodd" fill="none">
  <path 
    d="M12,0c6.623,0 12,5.377 12,12c0,6.623 -5.377,12 -12,12c-6.623,0 -12,-5.377 -12,-12c0,-6.623 5.377,-12 12,-12Zm0,1.201c5.96,0 10.799,4.839 10.799,10.799c0,5.96 -4.839,10.799 -10.799,10.799c-5.96,0 -10.799,-4.839 -10.799,-10.799c0,-5.96 4.839,-10.799 10.799,-10.799Zm0,1.082c5.363,0 9.717,4.354 9.717,9.717c0,5.363 -4.354,9.717 -9.717,9.717c-5.363,0 -9.717,-4.354 -9.717,-9.717c0,-5.363 4.354,-9.717 9.717,-9.717Zm0.68,16.416c0.229,0 0.415,-0.186 0.415,-0.417c0,-0.231 -0.186,-0.417 -0.415,-0.417l-1.36,0c-0.229,0 -0.415,0.186 -0.415,0.417c0,0.231 0.186,0.417 0.415,0.417l1.36,0Zm0.102,-1.281l-0.205,-3.523l-1.166,0l-0.179,3.523l1.55,0Zm0.214,-3.966l0.075,1.286l2.531,1.336l-0.688,-3.884l2.914,-2.751l-4.027,-0.566l-1.801,-3.534l-1.801,3.534l-4.027,0.566l2.914,2.751l-0.688,3.884l2.527,-1.333l0.065,-1.289l2.006,0Zm-0.996,-1.396l1.129,0.575l-0.216,-1.217l0.914,-0.863l-1.262,-0.177l-0.565,-1.108l-0.565,1.108l-1.262,0.177l0.914,0.863l-0.216,1.217l1.129,-0.575Z" 
    fill="#06b6d4"
  ></path>
</svg>
